<svg class="animated" id="freepik_stories-wall-post" xmlns="http://www.w3.org/2000/svg" viewBox="0 0 500 500" version="1.1" xmlns:xlink="http://www.w3.org/1999/xlink" xmlns:svgjs="http://svgjs.com/svgjs"><style>svg#freepik_stories-wall-post:not(.animated) .animable {opacity: 0;}svg#freepik_stories-wall-post.animated #freepik--Floor--inject-22 {animation: 1s 1 forwards cubic-bezier(.36,-0.01,.5,1.38) lightSpeedLeft;animation-delay: 0s;}svg#freepik_stories-wall-post.animated #freepik--Shadows--inject-22 {animation: 1s 1 forwards cubic-bezier(.36,-0.01,.5,1.38) slideLeft;animation-delay: 0s;}svg#freepik_stories-wall-post.animated #freepik--Device--inject-22 {animation: 1s 1 forwards cubic-bezier(.36,-0.01,.5,1.38) slideRight;animation-delay: 0s;}svg#freepik_stories-wall-post.animated #freepik--Window--inject-22 {animation: 1s 1 forwards cubic-bezier(.36,-0.01,.5,1.38) lightSpeedLeft;animation-delay: 0s;}svg#freepik_stories-wall-post.animated #freepik--Plants--inject-22 {animation: 1s 1 forwards cubic-bezier(.36,-0.01,.5,1.38) slideLeft;animation-delay: 0s;}svg#freepik_stories-wall-post.animated #freepik--Post--inject-22 {animation: 1s 1 forwards cubic-bezier(.36,-0.01,.5,1.38) slideRight;animation-delay: 0s;}svg#freepik_stories-wall-post.animated #freepik--Character--inject-22 {animation: 1s 1 forwards cubic-bezier(.36,-0.01,.5,1.38) zoomOut;animation-delay: 0s;}            @keyframes lightSpeedLeft {              from {                transform: translate3d(-50%, 0, 0) skewX(20deg);                opacity: 0;              }              60% {                transform: skewX(-10deg);                opacity: 1;              }              80% {                transform: skewX(2deg);              }              to {                opacity: 1;                transform: translate3d(0, 0, 0);              }            }                    @keyframes slideLeft {                0% {                    opacity: 0;                    transform: translateX(-30px);                }                100% {                    opacity: 1;                    transform: translateX(0);                }            }                    @keyframes slideRight {                0% {                    opacity: 0;                    transform: translateX(30px);                }                100% {                    opacity: 1;                    transform: translateX(0);                }            }                    @keyframes zoomOut {                0% {                    opacity: 0;                    transform: scale(1.5);                }                100% {                    opacity: 1;                    transform: scale(1);                }            }        </style><g id="freepik--Floor--inject-22" class="animable" style="transform-origin: 250.17px 346.97px;"><ellipse id="freepik--floor--inject-22" cx="250.17" cy="346.97" rx="235.61" ry="136.03" style="fill: rgb(240, 240, 240); transform-origin: 250.17px 346.97px;" class="animable"></ellipse></g><g id="freepik--Shadows--inject-22" class="animable" style="transform-origin: 237.616px 329.966px;"><path id="freepik--Shadow--inject-22" d="M71.24,395.41,30.6,372c-2.29-1.33-2.29-3.47,0-4.79L267,230.68a9.13,9.13,0,0,1,8.3,0l40.64,23.46c2.29,1.32,2.29,3.47,0,4.79L79.54,395.41A9.19,9.19,0,0,1,71.24,395.41Z" style="fill: rgb(224, 224, 224); transform-origin: 173.27px 313.041px;" class="animable"></path><polygon id="freepik--shadow--inject-22" points="245.93 405.12 148.32 348.77 270.3 278.48 367.79 334.76 245.93 405.12" style="fill: rgb(224, 224, 224); transform-origin: 258.055px 341.8px;" class="animable"></polygon><ellipse id="freepik--shadow--inject-22" cx="380.69" cy="403.61" rx="46.14" ry="26.64" style="fill: rgb(224, 224, 224); transform-origin: 380.69px 403.61px;" class="animable"></ellipse><path id="freepik--shadow--inject-22" d="M442.6,371.53c5,2.89,5,7.57,0,10.46s-13.11,2.88-18.11,0-5-7.57,0-10.46S437.6,368.64,442.6,371.53Z" style="fill: rgb(224, 224, 224); transform-origin: 433.545px 376.758px;" class="animable"></path></g><g id="freepik--Device--inject-22" class="animable" style="transform-origin: 185.5px 200.417px;"><g id="freepik--device--inject-22" class="animable" style="transform-origin: 185.5px 200.417px;"><path d="M217.32,353.59l34.94-20.2c3.6-2.08,5.4-4.8,5.4-7.53s0-4.86,0-4.86l-36.25-20.44a7.68,7.68,0,0,1-3.48-6V251.47l-61,35.26V329.8a7.7,7.7,0,0,0,3.48,6l30.84,17.76C198.44,357.75,210.12,357.75,217.32,353.59Z" style="fill: rgb(144, 202, 249); transform-origin: 207.295px 304.088px;" id="el3tqei8dapn4" class="animable"></path><g id="eldanaa47i65e"><g style="opacity: 0.6; transform-origin: 207.295px 304.088px;" class="animable"><path d="M217.32,353.59l34.94-20.2c3.6-2.08,5.4-4.8,5.4-7.53s0-4.86,0-4.86l-36.25-20.44a7.68,7.68,0,0,1-3.48-6V251.47l-61,35.26V329.8a7.7,7.7,0,0,0,3.48,6l30.84,17.76C198.44,357.75,210.12,357.75,217.32,353.59Z" id="elhfjaxpagz59" class="animable" style="transform-origin: 207.295px 304.088px;"></path></g></g><g id="eljvcxzqo8ir"><path d="M171.58,337.43v4.84l-11.19-6.45a7.67,7.67,0,0,1-3.47-6V286.73L168.54,280c.24,3,.51,6,.75,9l-8.16,4.72v33.65a7.63,7.63,0,0,0,3.48,6Z" style="opacity: 0.3; transform-origin: 164.25px 311.135px;" class="animable"></path></g><path d="M161.13,327.38a7.68,7.68,0,0,0,3.48,6l26.62,15.34c7.2,4.15,18.88,4.16,26.09,0l35-20.2c7.21-4.16,7.21-10.9,0-15.06l-26.63-15.34a7.67,7.67,0,0,1-3.48-6V258.46l-61,35.26Z" style="fill: rgb(144, 202, 249); transform-origin: 209.429px 305.148px;" id="elc79lm3p5tcs" class="animable"></path><g id="elwvh75udwf2e"><path d="M161.13,327.38a7.68,7.68,0,0,0,3.48,6l26.62,15.34c7.2,4.15,18.88,4.16,26.09,0l35-20.2c7.21-4.16,7.21-10.9,0-15.06l-26.63-15.34a7.67,7.67,0,0,1-3.48-6V258.46l-61,35.26Z" style="opacity: 0.3; transform-origin: 209.429px 305.148px;" class="animable"></path></g><g id="elq35g6tdccu8"><path d="M232.72,302.23h0l-7.08-4.09a7.67,7.67,0,0,1-3.48-6V258.46l-61,35.26v33.66a7.68,7.68,0,0,0,3.48,6l7,4Z" style="opacity: 0.5; transform-origin: 196.94px 297.92px;" class="animable"></path></g><path d="M257.67,321v4.86c0,2.73-1.81,5.44-5.4,7.53l-35,20.19a26.23,26.23,0,0,1-12.45,3.09v-4.84a26.23,26.23,0,0,0,12.45-3.09l35-20.21C255.86,326.47,257.67,323.74,257.67,321Z" style="fill: rgb(144, 202, 249); transform-origin: 231.245px 338.835px;" id="elu2716h9gbbb" class="animable"></path><g id="eljsn79ng8da"><path d="M257.67,321v4.86c0,2.73-1.81,5.44-5.4,7.53l-35,20.19a26.23,26.23,0,0,1-12.45,3.09v-4.84a26.23,26.23,0,0,0,12.45-3.09l35-20.21C255.86,326.47,257.67,323.74,257.67,321Z" style="opacity: 0.5; transform-origin: 231.245px 338.835px;" class="animable"></path></g><path d="M63.15,369.21a9.35,9.35,0,0,0,8.43-.15l236-136.25a9.62,9.62,0,0,0,4.35-7.53V34.36A9.32,9.32,0,0,0,307.84,27a9.3,9.3,0,0,0-8.42.16L63.42,163.4a9.58,9.58,0,0,0-4.34,7.52V361.84A9.32,9.32,0,0,0,63.15,369.21Z" style="fill: rgb(144, 202, 249); transform-origin: 185.505px 198.106px;" id="eldogb2r4jqw4" class="animable"></path><path d="M71.58,369.05l236-136.25a9.61,9.61,0,0,0,4.35-7.53V34.36c0-2.77-1.95-3.9-4.35-2.51L71.58,168.1a9.61,9.61,0,0,0-4.35,7.53V366.54C67.23,369.31,69.18,370.44,71.58,369.05Z" style="fill: rgb(144, 202, 249); transform-origin: 189.58px 200.45px;" id="el6cz21qau2kq" class="animable"></path><g id="eltwa5juqtpjo"><path d="M71.58,369.05l236-136.25a9.61,9.61,0,0,0,4.35-7.53V34.36c0-2.77-1.95-3.9-4.35-2.51L71.58,168.1a9.61,9.61,0,0,0-4.35,7.53V366.54C67.23,369.31,69.18,370.44,71.58,369.05Z" style="opacity: 0.5; transform-origin: 189.58px 200.45px;" class="animable"></path></g><path d="M70.94,374a9.34,9.34,0,0,1-7.79-.16,9.33,9.33,0,0,1-4.08-7.39V349.08l8.15,4.72v17.38C67.22,373.71,68.83,374.86,70.94,374Z" style="fill: rgb(144, 202, 249); transform-origin: 65.005px 361.927px;" id="ele32dps06ok" class="animable"></path><g id="elgjpibgayzsk"><path d="M70.94,374a9.34,9.34,0,0,1-7.79-.16,9.33,9.33,0,0,1-4.08-7.39V349.08l8.15,4.72v17.38C67.22,373.71,68.83,374.86,70.94,374Z" style="opacity: 0.5; transform-origin: 65.005px 361.927px;" class="animable"></path></g><path d="M67.22,353.8v17.38c0,2.77,2,3.89,4.35,2.51l236-136.25a9.62,9.62,0,0,0,4.35-7.53V212.49Z" style="fill: rgb(144, 202, 249); transform-origin: 189.57px 293.385px;" id="elfjldo8vxa4o" class="animable"></path><g id="elv92532n1f4g"><path d="M67.23,353.76v17.42c0,2.77,2,3.89,4.35,2.51l236-136.25a9.62,9.62,0,0,0,4.35-7.53V212.49Z" style="opacity: 0.3; transform-origin: 189.58px 293.385px;" class="animable"></path></g><path d="M75.38,332V178.33a5.75,5.75,0,0,1,2.6-4.51L301.15,45c1.44-.83,2.61-.16,2.61,1.5V200.14a5.76,5.76,0,0,1-2.61,4.52L78,333.5C76.55,334.33,75.38,333.65,75.38,332Z" style="fill: rgb(144, 202, 249); transform-origin: 189.57px 189.249px;" id="elt8l4w95zdx" class="animable"></path><path d="M75.38,332V178.33a5.75,5.75,0,0,1,2.6-4.51L301.15,45c1.44-.83,2.61-.16,2.61,1.5V200.14a5.76,5.76,0,0,1-2.61,4.52L78,333.5C76.55,334.33,75.38,333.65,75.38,332Z" style="fill: rgb(38, 50, 56); transform-origin: 189.57px 189.249px;" id="eli8l024y0kpj" class="animable"></path><g id="elfusllfvkme7"><path d="M68.51,171.33a9.25,9.25,0,0,0-1.29,4.29V353.8l-8.15-4.72V170.92a8.89,8.89,0,0,1,1.28-4.29Z" style="opacity: 0.7; transform-origin: 63.79px 260.215px;" class="animable"></path></g><g id="elyyvvr8a2jj"><path d="M311.88,33.64c-.31-2.24-2.12-3.05-4.31-1.8L71.58,168.1a8.94,8.94,0,0,0-3.07,3.23l-8.16-4.71a9,9,0,0,1,3.08-3.23l236-136.24a9.32,9.32,0,0,1,8.43-.16A9.37,9.37,0,0,1,311.88,33.64Z" style="opacity: 0.3; transform-origin: 186.115px 98.6953px;" class="animable"></path></g></g></g><g id="freepik--Window--inject-22" class="animable" style="transform-origin: 206.85px 200.152px;"><g id="freepik--window--inject-22" class="animable" style="transform-origin: 206.85px 200.152px;"><path d="M93.61,207.75a4.65,4.65,0,0,1-2-3.67V187.17a4.81,4.81,0,0,1,2.17-3.75L315.87,55.17a4.06,4.06,0,0,1,6.22,3.59v16.9a4.74,4.74,0,0,1-2.16,3.75L97.8,207.67A4.62,4.62,0,0,1,93.61,207.75Z" style="fill: rgb(144, 202, 249); transform-origin: 206.851px 131.38px;" id="el0tvekqpqmzr" class="animable"></path><g id="elu54c6nx8gt"><path d="M322.07,58.41c-.15-1.12-1.06-1.53-2.14-.9L97.8,185.77a4.6,4.6,0,0,0-1.53,1.62L92.21,185a4.51,4.51,0,0,1,1.53-1.62L315.87,55.17a4,4,0,0,1,6.2,3.24Z" style="fill: rgb(255, 255, 255); opacity: 0.4; transform-origin: 207.14px 120.95px;" class="animable"></path></g><path d="M97.8,345.24a3.63,3.63,0,0,1-1.7.52,4.26,4.26,0,0,1-2.49-.44,4.62,4.62,0,0,1-2-3.67V212.82l4.07,2.35V344c0,1,.49,1.55,1.2,1.55A2.08,2.08,0,0,0,97.8,345.24Z" style="fill: rgb(240, 240, 240); transform-origin: 94.705px 279.307px;" id="elh5h03ycdzx6" class="animable"></path><g id="el5k4s1nqreb"><path d="M96.27,187.39a4.4,4.4,0,0,0-.63,2.13v25.65l-4.07-2.35V187.17c0-.09,0-.17,0-.26a4.18,4.18,0,0,1,.09-.53,4.83,4.83,0,0,1,.54-1.34Z" style="opacity: 0.1; transform-origin: 93.92px 200.105px;" class="animable"></path></g><path d="M322.09,58.76V70.33l-159.3,92c-1.19.69-2.16.13-2.16-1.25v-4.38c0-1.38-1-1.94-2.17-1.25l-52.53,30.33a4.78,4.78,0,0,0-2.17,3.75v4.38a4.8,4.8,0,0,1-2.16,3.75l-6,3.44V189.52a4.8,4.8,0,0,1,2.16-3.75L319.93,57.51C321.12,56.82,322.09,57.38,322.09,58.76Z" style="fill: rgb(144, 202, 249); transform-origin: 208.845px 129.157px;" id="elwl48bodabbg" class="animable"></path><path d="M322.09,213.23a4.79,4.79,0,0,1-2.16,3.76L97.8,345.24c-1.19.69-2.16.13-2.16-1.25V201.09l6-3.44c1.19-.69,3.13-11.19,4.33-11.88l51.65-29.83c1.2-.69,4,7.07,5.21,6.38l159.3-92v142.9Z" style="fill: rgb(250, 250, 250); transform-origin: 208.885px 207.928px;" id="el42vegkds9uw" class="animable"></path><path d="M321.09,72.06V213.23a3.79,3.79,0,0,1-1.66,2.89L97.3,344.38a1,1,0,0,1-.46.16c-.2,0-.2-.52-.2-.55V201.66l5.46-3.15c.87-.5,1.41-2.18,2.62-6.51a32,32,0,0,1,1.79-5.41L157.7,157a23.36,23.36,0,0,1,1.63,2.6c1.39,2.45,2.17,3.73,3.3,3.73a1.28,1.28,0,0,0,.66-.18l157.8-91.12m-163,84.75h0m-51.54,29.74h0M322.09,70.33l-159.3,92a.29.29,0,0,1-.16,0c-1.21,0-3.67-6.46-4.89-6.46a.32.32,0,0,0-.16,0l-51.65,29.83c-1.2.69-3.14,11.19-4.33,11.88l-6,3.44V344c0,1,.49,1.55,1.2,1.55a1.94,1.94,0,0,0,1-.3L319.93,217a4.79,4.79,0,0,0,2.16-3.76V70.33Z" style="fill: rgb(224, 224, 224); transform-origin: 208.845px 207.94px;" id="elucgwq9euu19" class="animable"></path><path d="M133.64,263.57l29.6-17.09c.8-.46,1.44-.09,1.44.83v49.85a3.18,3.18,0,0,1-1.44,2.5l-29.6,17.09c-.8.46-1.44.08-1.44-.84V266.07A3.18,3.18,0,0,1,133.64,263.57Z" style="fill: rgb(240, 240, 240); transform-origin: 148.44px 281.614px;" id="elsekaignm81e" class="animable"></path><path d="M139.05,266.69l18.78-10.84c.79-.46,1.44-.13,1.44.73a3.11,3.11,0,0,1-1.44,2.4l-18.78,10.84c-.79.46-1.44.13-1.44-.73A3.12,3.12,0,0,1,139.05,266.69Z" style="fill: rgb(224, 224, 224); transform-origin: 148.44px 262.835px;" id="elu1ef2mk3cfk" class="animable"></path><path d="M137.61,274.78v1.13c0,.55.39.77.87.5l1-.57a1.89,1.89,0,0,0,.87-1.5v-1.12c0-.56-.39-.78-.87-.5l-1,.56A1.92,1.92,0,0,0,137.61,274.78Z" style="fill: rgb(144, 202, 249); transform-origin: 138.98px 274.562px;" id="el0cmhh6j5p2kv" class="animable"></path><path d="M143,272.22c0,.86.65,1.19,1.45.73l13.36-7.72a3.1,3.1,0,0,0,1.44-2.39c0-.87-.65-1.19-1.44-.73l-13.36,7.71A3.09,3.09,0,0,0,143,272.22Z" style="fill: rgb(224, 224, 224); transform-origin: 151.125px 267.529px;" id="eldkde0dncoia" class="animable"></path><path d="M137.61,281v1.13c0,.55.39.77.87.5l1-.57a1.91,1.91,0,0,0,.87-1.5v-1.12c0-.56-.39-.78-.87-.5l-1,.56A1.92,1.92,0,0,0,137.61,281Z" style="fill: rgb(144, 202, 249); transform-origin: 138.98px 280.782px;" id="elwh7jkjm77m" class="animable"></path><path d="M143,278.48c0,.86.65,1.19,1.45.73l13.36-7.72a3.1,3.1,0,0,0,1.44-2.39c0-.87-.65-1.19-1.44-.73l-13.36,7.71A3.09,3.09,0,0,0,143,278.48Z" style="fill: rgb(224, 224, 224); transform-origin: 151.125px 273.789px;" id="elfzus4xbisse" class="animable"></path><path d="M137.61,287.29v1.12c0,.56.39.78.87.5l1-.56a1.92,1.92,0,0,0,.87-1.5v-1.13c0-.55-.39-.77-.87-.5l-1,.57A1.91,1.91,0,0,0,137.61,287.29Z" style="fill: rgb(144, 202, 249); transform-origin: 138.98px 287.068px;" id="eldda8gong7hf" class="animable"></path><path d="M143,284.72c0,.87.65,1.19,1.45.73l13.36-7.71a3.1,3.1,0,0,0,1.44-2.39c0-.87-.65-1.19-1.44-.73l-13.36,7.71A3.09,3.09,0,0,0,143,284.72Z" style="fill: rgb(224, 224, 224); transform-origin: 151.125px 280.035px;" id="ely6rzu396e4r" class="animable"></path><path d="M137.61,293.53v1.13c0,.55.39.78.87.5l1-.56a1.92,1.92,0,0,0,.87-1.5V292c0-.55-.39-.78-.87-.5l-1,.56A1.92,1.92,0,0,0,137.61,293.53Z" style="fill: rgb(144, 202, 249); transform-origin: 138.98px 293.33px;" id="eluhn5qx1ehpp" class="animable"></path><path d="M143,291c0,.86.65,1.19,1.45.73L157.83,284a3.12,3.12,0,0,0,1.44-2.4c0-.86-.65-1.19-1.44-.73l-13.36,7.71A3.11,3.11,0,0,0,143,291Z" style="fill: rgb(224, 224, 224); transform-origin: 151.135px 286.3px;" id="el9iehs4fv5rq" class="animable"></path><path d="M138.94,301.15l18.77-10.84c.8-.46,1.45-.14,1.45.73a3.09,3.09,0,0,1-1.45,2.39l-18.77,10.84c-.8.46-1.45.14-1.44-.73A3.08,3.08,0,0,1,138.94,301.15Z" style="fill: rgb(224, 224, 224); transform-origin: 148.33px 297.29px;" id="elb4rz6yg1hed" class="animable"></path><path d="M137.49,309.23v1.13c0,.55.39.78.87.5l1-.56a1.91,1.91,0,0,0,.86-1.5v-1.13c0-.55-.39-.78-.86-.5l-1,.56A1.92,1.92,0,0,0,137.49,309.23Z" style="fill: rgb(144, 202, 249); transform-origin: 138.855px 309.015px;" id="el2171e70stq9g" class="animable"></path><path d="M142.91,306.67c0,.86.65,1.19,1.44.73l13.36-7.71a3.11,3.11,0,0,0,1.45-2.4c0-.86-.65-1.19-1.45-.73l-13.36,7.71A3.12,3.12,0,0,0,142.91,306.67Z" style="fill: rgb(224, 224, 224); transform-origin: 151.035px 301.98px;" id="elvvh4mjcoen" class="animable"></path><path d="M311.94,66c1.51-.87,2.73-.16,2.73,1.58a6,6,0,0,1-2.73,4.72c-1.5.86-2.72.16-2.72-1.58A6,6,0,0,1,311.94,66Z" style="fill: rgb(255, 255, 255); transform-origin: 311.945px 69.1478px;" id="elc7yzv5b8ehw" class="animable"></path><path d="M302.13,71.67c1.51-.87,2.73-.17,2.73,1.57A6,6,0,0,1,302.13,78c-1.5.87-2.72.16-2.72-1.57A6,6,0,0,1,302.13,71.67Z" style="fill: rgb(255, 255, 255); transform-origin: 302.135px 74.8341px;" id="el07i0i6mpc3tk" class="animable"></path><g id="elphejz0zareo"><ellipse cx="292.32" cy="80.47" rx="3.85" ry="2.22" style="fill: rgb(255, 255, 255); transform-origin: 292.32px 80.47px; transform: rotate(-60deg);" class="animable"></ellipse></g><path d="M322.09,70.33V84.41L95.64,215.17V201.09l4.45-2.58c1.19-.69,1.59-1.74,2.16-3.75l1.51-5.24c.48-1.82,1-3.06,2.17-3.75l51.65-29.83c1.2-.69,2.14-.76,3,.75l1.85,3.36c.68,1.17,1,1.86,2.21,1.17Z" style="fill: rgb(230, 230, 230); transform-origin: 208.865px 142.75px;" id="eljctrmbi2zjq" class="animable"></path><polygon points="95.64 201.09 95.64 215.17 91.57 212.82 91.57 198.75 95.64 201.09" style="fill: rgb(224, 224, 224); transform-origin: 93.605px 206.96px;" id="el6044x2hlt4m" class="animable"></polygon><g id="eljxv6d0toax"><path d="M105.57,202.1l-3.4,2,1.3-2.49a.64.64,0,0,0,0-.61c-.1-.12-.28,0-.39.19l-1.84,3.54v0s0,.08-.05.13v0a.57.57,0,0,0,0,.18.38.38,0,0,0,0,.16s0,0,0,0a.56.56,0,0,0,.05.08h0l1.84,1.41a.15.15,0,0,0,.18,0,.52.52,0,0,0,.21-.26.55.55,0,0,0,0-.58l-1.3-1,3.4-2a.71.71,0,0,0,.28-.58C105.85,202.13,105.72,202,105.57,202.1Z" style="fill: rgb(69, 90, 100); opacity: 0.5; transform-origin: 103.516px 203.836px;" class="animable"></path></g><g id="elbcmm3hojbv7"><path d="M108.41,200.46l3.4-2-1.3-1c-.11-.08-.12-.34,0-.58s.27-.34.38-.26l1.85,1.42h0a.13.13,0,0,1,0,.07l0,0a.61.61,0,0,1,0,.15,1.23,1.23,0,0,1,0,.19s0,0,0,0a.69.69,0,0,1,0,.13h0l-1.85,3.55a.48.48,0,0,1-.18.21.14.14,0,0,1-.2,0,.63.63,0,0,1,0-.61l1.3-2.49-3.4,2c-.15.09-.27,0-.27-.26A.73.73,0,0,1,108.41,200.46Z" style="fill: rgb(69, 90, 100); opacity: 0.5; transform-origin: 110.442px 199.487px;" class="animable"></path></g><g id="ell2mxdlm6j1j"><path d="M119.56,190.67c0-.2-.2-.17-.29.05l-.46,1.14c-.8-.09-1.76.69-2.41,2.06-.84,1.78-.84,3.89,0,4.7a1.2,1.2,0,0,0,1.53.09,4.17,4.17,0,0,0,1.52-1.85.58.58,0,0,0,0-.6c-.1-.1-.28,0-.38.23-.63,1.33-1.65,1.92-2.28,1.31s-.63-2.18,0-3.51c.44-.94,1.09-1.5,1.65-1.54l-.35.86c-.09.22,0,.43.13.34l1.39-.91a.42.42,0,0,0,.15-.38Z" style="fill: rgb(69, 90, 100); opacity: 0.5; transform-origin: 117.767px 194.74px;" class="animable"></path></g><g id="elkibnp0va65"><path d="M156.09,162.37l1.24-2.62a.79.79,0,0,0,0-.82c-.15-.14-.38,0-.53.31l-1.24,2.62-1.24-1.19c-.14-.14-.38,0-.53.3a.84.84,0,0,0,0,.82L155,163l-1.24,2.63a.82.82,0,0,0,0,.81.22.22,0,0,0,.27,0,.79.79,0,0,0,.26-.32l1.24-2.63,1.24,1.2a.21.21,0,0,0,.27,0,.73.73,0,0,0,.26-.32.79.79,0,0,0,0-.82Z" style="fill: rgb(69, 90, 100); opacity: 0.5; transform-origin: 155.549px 162.681px;" class="animable"></path></g><path d="M124.07,193.9v-4.38a4.78,4.78,0,0,1,2.17-3.75L307.75,81c1.19-.69,2.16-.13,2.16,1.25v4.38a4.8,4.8,0,0,1-2.16,3.75L126.24,195.15C125,195.84,124.07,195.28,124.07,193.9Z" style="fill: rgb(250, 250, 250); transform-origin: 216.99px 138.075px;" id="eltxpet1clhh" class="animable"></path><path d="M304.8,90.73a.53.53,0,0,1-.19,0,.59.59,0,0,1-.33-.65l.21-1.78-.83-.6a.58.58,0,0,1-.23-.49,1,1,0,0,1,.36-.75l1.27-1a.22.22,0,0,0,.05-.1l.57-1.87a.8.8,0,0,1,.64-.6.5.5,0,0,1,.5.3h0l.48,1,1.07-.41a.52.52,0,0,1,.58.13.81.81,0,0,1,0,.88l-.92,1.72s0,.1,0,.11l.21,1.56A1,1,0,0,1,308,89a.61.61,0,0,1-.5.2l-1-.13-1.12,1.43A.64.64,0,0,1,304.8,90.73Zm-.61-3.62.83.6a.64.64,0,0,1,.22.6l-.14,1.18.75-.95a.65.65,0,0,1,.57-.28l1,.13a.34.34,0,0,0,0-.12l-.22-1.56a1,1,0,0,1,.11-.56l.81-1.51-.83.32a.51.51,0,0,1-.66-.27l-.37-.79-.51,1.66a1,1,0,0,1-.31.47l-1.28,1A.23.23,0,0,0,304.19,87.11Zm3.2-2.74h0Z" style="fill: rgb(224, 224, 224); transform-origin: 306.255px 86.8135px;" id="el06ne6irdmm6" class="animable"></path><g id="elgyousr6g7b9"><g style="opacity: 0.5; transform-origin: 315.51px 81.4898px;" class="animable"><path d="M312.46,80.48a.75.75,0,0,1-.37-1.4l6.09-3.52a.75.75,0,0,1,.75,1.3l-6.09,3.52A.75.75,0,0,1,312.46,80.48Z" style="fill: rgb(69, 90, 100); transform-origin: 315.51px 77.9698px;" id="elekxzqzf3mjf" class="animable"></path><path d="M312.46,84a.75.75,0,0,1-.37-1.4l6.09-3.52a.75.75,0,0,1,.75,1.3l-6.09,3.52A.86.86,0,0,1,312.46,84Z" style="fill: rgb(69, 90, 100); transform-origin: 315.51px 81.4898px;" id="elpvvjvpg5f4" class="animable"></path><path d="M312.46,87.52a.75.75,0,0,1-.37-1.4l6.09-3.52a.74.74,0,0,1,1,.27.75.75,0,0,1-.27,1l-6.09,3.51A.76.76,0,0,1,312.46,87.52Z" style="fill: rgb(69, 90, 100); transform-origin: 315.493px 85.0126px;" id="elxpmx1lw2s9n" class="animable"></path></g></g><polygon points="95.64 215.17 95.63 229.23 322.07 98.5 322.09 84.41 95.64 215.17" style="fill: rgb(69, 90, 100); transform-origin: 208.86px 156.82px;" id="el9dec78nuh38" class="animable"></polygon><path d="M121,206.2v2.72c0,.56.39.78.87.5l34-19.65V185l-34,19.65A1.94,1.94,0,0,0,121,206.2Z" style="fill: rgb(250, 250, 250); transform-origin: 138.435px 197.271px;" id="el3vlm77yavft" class="animable"></path><path d="M160.5,182.37c.49-.28.88-.05.88.51v2.72a1.91,1.91,0,0,1-.88,1.51l-4.6,2.66V185Z" style="fill: rgb(144, 202, 249); transform-origin: 158.64px 186.01px;" id="ellmrjakap60h" class="animable"></path><path d="M160.16,186.1l-.51-.16a3,3,0,0,0,.08-.66,1.2,1.2,0,0,0-.47-1.09.71.71,0,0,0-.74,0,2.61,2.61,0,0,0-1,2.13,1.2,1.2,0,0,0,.47,1.1.63.63,0,0,0,.33.09.79.79,0,0,0,.42-.13,2.22,2.22,0,0,0,.83-1.11l.51.16h.06a.19.19,0,0,0,.18-.13A.2.2,0,0,0,160.16,186.1Zm-1.64,1a.34.34,0,0,1-.37,0,.9.9,0,0,1-.28-.77,2.27,2.27,0,0,1,.84-1.8.43.43,0,0,1,.23-.07.28.28,0,0,1,.13,0,.88.88,0,0,1,.28.77A2.28,2.28,0,0,1,158.52,187.08Z" style="fill: rgb(250, 250, 250); transform-origin: 158.916px 185.798px;" id="elp4sseqyedgm" class="animable"></path><path d="M115.07,208.63,112.75,210a1.92,1.92,0,0,0-.87,1.5v2.69c0,.56.39.78.87.5l2.32-1.34a1.91,1.91,0,0,0,.87-1.5v-2.69C115.94,208.58,115.55,208.35,115.07,208.63Z" style="fill: rgb(250, 250, 250); transform-origin: 113.91px 211.661px;" id="elmdv3w8at0kd" class="animable"></path><path d="M195.7,160.93a6.87,6.87,0,0,0-3.1,5.38c0,2,1.39,2.78,3.1,1.79a6.87,6.87,0,0,0,3.1-5.38C198.8,160.75,197.41,159.94,195.7,160.93Z" style="fill: rgb(144, 202, 249); transform-origin: 195.7px 164.518px;" id="eliha7lmik0y" class="animable"></path><path d="M195.34,164.09a.55.55,0,0,1-.28-.07.68.68,0,0,1-.3-.62,1.8,1.8,0,0,1,.82-1.42h0a.69.69,0,0,1,.69,0,.68.68,0,0,1,.3.62,1.8,1.8,0,0,1-.82,1.42A.83.83,0,0,1,195.34,164.09Z" style="fill: rgb(255, 255, 255); transform-origin: 195.665px 162.99px;" id="elvn9aomhos4" class="animable"></path><path d="M196.93,164.3a1.08,1.08,0,0,0-1.1.08l-.45.26a3,3,0,0,0-1.39,2.42v.32a1.75,1.75,0,0,0,1.71-.18,5,5,0,0,0,1.71-1.8v-.08A1.11,1.11,0,0,0,196.93,164.3Z" style="fill: rgb(255, 255, 255); transform-origin: 195.702px 165.855px;" id="elpoeh6vviyua" class="animable"></path><path d="M202.8,158.53l21.25-12.28c.86-.49,1.56-.12,1.56.85a3.37,3.37,0,0,1-1.56,2.64L202.8,162c-.86.5-1.56.12-1.56-.84A3.38,3.38,0,0,1,202.8,158.53Z" style="fill: rgb(224, 224, 224); transform-origin: 213.425px 154.127px;" id="elj226lhkggs" class="animable"></path><path d="M235.24,139.82l13.19-7.68c.86-.5,1.55-.12,1.56.84a3.4,3.4,0,0,1-1.56,2.64l-13.19,7.69c-.86.49-1.56.12-1.56-.85A3.4,3.4,0,0,1,235.24,139.82Z" style="fill: rgb(224, 224, 224); transform-origin: 241.835px 137.723px;" id="elxfzio9fwfj" class="animable"></path><path d="M259.64,125.8l9.1-5.28c.86-.5,1.56-.12,1.56.84a3.38,3.38,0,0,1-1.56,2.64l-9.1,5.29c-.86.49-1.56.12-1.56-.84A3.4,3.4,0,0,1,259.64,125.8Z" style="fill: rgb(224, 224, 224); transform-origin: 264.19px 124.903px;" id="elfze4w10ag58" class="animable"></path><path d="M229.68,147.53a.38.38,0,0,1-.38-.38v-4.69a.38.38,0,0,1,.75,0v4.69A.38.38,0,0,1,229.68,147.53Z" style="fill: rgb(38, 50, 56); transform-origin: 229.675px 144.836px;" id="elshx836pjksm" class="animable"></path><path d="M254.05,133.46a.38.38,0,0,1-.38-.38v-4.69a.38.38,0,0,1,.75,0v4.69A.38.38,0,0,1,254.05,133.46Z" style="fill: rgb(38, 50, 56); transform-origin: 254.045px 130.766px;" id="eljfpmmkv4f" class="animable"></path><path d="M274.36,121.73a.38.38,0,0,1-.38-.37v-4.69a.38.38,0,1,1,.75,0v4.69A.38.38,0,0,1,274.36,121.73Z" style="fill: rgb(38, 50, 56); transform-origin: 274.355px 118.979px;" id="elz62kljes3d" class="animable"></path><path d="M282.17,114.5v-.86c0-1-.6-1.44-1.34-1h0a3.21,3.21,0,0,0-1.33,2.55V116a3.07,3.07,0,0,1-.45,1.51h0a.79.79,0,0,0-.11.39h0c0,.25.15.36.33.26l3.13-1.8a.83.83,0,0,0,.33-.65h0a.33.33,0,0,0-.1-.26h0A.92.92,0,0,1,282.17,114.5Z" style="fill: rgb(144, 202, 249); transform-origin: 280.835px 115.333px;" id="eloor83f40p2p" class="animable"></path><path d="M281.48,117.1a1.55,1.55,0,0,1-.65,1.23c-.35.2-.64,0-.64-.49Z" style="fill: rgb(144, 202, 249); transform-origin: 280.835px 117.753px;" id="elry5tum4xwvh" class="animable"></path><path d="M287.88,110.72a.65.65,0,0,1-.31-.08.77.77,0,0,1-.34-.7,2,2,0,0,1,.92-1.6h0a.79.79,0,0,1,.78-.06.77.77,0,0,1,.34.7,2,2,0,0,1-.92,1.6A1,1,0,0,1,287.88,110.72Z" style="fill: rgb(144, 202, 249); transform-origin: 288.25px 109.462px;" id="elb15cr5ia0bh" class="animable"></path><path d="M289.67,111a1.21,1.21,0,0,0-1.23.1l-.51.29a3.44,3.44,0,0,0-1.57,2.73v.36a2,2,0,0,0,1.93-.2,5.72,5.72,0,0,0,1.93-2v-.09A1.28,1.28,0,0,0,289.67,111Z" style="fill: rgb(144, 202, 249); transform-origin: 288.293px 112.759px;" id="elolubhnr6hgd" class="animable"></path><path d="M290.36,108.4a.55.55,0,0,1-.31-.08.75.75,0,0,1-.34-.7,2,2,0,0,1,.92-1.6h0a.69.69,0,0,1,1.11.65,2,2,0,0,1-.92,1.59A.87.87,0,0,1,290.36,108.4Z" style="fill: rgb(144, 202, 249); transform-origin: 290.728px 107.136px;" id="el32w9w4gxe67" class="animable"></path><path d="M292.15,108.64a1.22,1.22,0,0,0-1.24.09l-.5.3a3.23,3.23,0,0,0-1.29,1.52,1.14,1.14,0,0,1,1.09,0,1.27,1.27,0,0,1,.55,1.16v.22a5.55,5.55,0,0,0,1.94-2v-.09A1.27,1.27,0,0,0,292.15,108.64Z" style="fill: rgb(144, 202, 249); transform-origin: 290.914px 110.221px;" id="elo0k0rd8cvvd" class="animable"></path><path d="M298.33,102.24a5.63,5.63,0,0,0-2.55,4.42,1.93,1.93,0,0,0,.57,1.51l-.32,1.51c0,.19.09.27.21.13l1.15-1.34a2.66,2.66,0,0,0,.94-.33,5.64,5.64,0,0,0,2.54-4.42C300.87,102.09,299.73,101.43,298.33,102.24Z" style="fill: rgb(144, 202, 249); transform-origin: 298.323px 105.887px;" id="elk28vrmdmir" class="animable"></path><path d="M310.56,95.12a1.41,1.41,0,0,1,.63-.22.85.85,0,0,1,.51.09.84.84,0,0,1,.34.4,1.57,1.57,0,0,1,.13.69,2.45,2.45,0,0,1-.07.62,5.22,5.22,0,0,1-.18.56c-.08.17-.16.34-.25.5s-.17.31-.25.46-.16.31-.22.46a1.94,1.94,0,0,0-.14.45,1.6,1.6,0,0,1-.05.21.28.28,0,0,1-.11.13l-.72.42a.09.09,0,0,1-.12,0,.21.21,0,0,1-.05-.15,2.25,2.25,0,0,1,.08-.58,5.31,5.31,0,0,1,.2-.56c.08-.17.17-.35.26-.51s.18-.32.26-.47a3.17,3.17,0,0,0,.2-.42,1,1,0,0,0,.08-.39c0-.18,0-.29-.13-.34s-.22,0-.4.08a1.13,1.13,0,0,0-.39.35,1.72,1.72,0,0,0-.17.37c0,.12-.07.23-.09.32a.4.4,0,0,1-.15.22l-.73.42a.08.08,0,0,1-.1,0,.17.17,0,0,1,0-.12,3.23,3.23,0,0,1,.11-.75,4.87,4.87,0,0,1,.33-.84,4.49,4.49,0,0,1,.52-.79A2.47,2.47,0,0,1,310.56,95.12Zm.52,6a.49.49,0,0,1-.05.2.33.33,0,0,1-.11.14l-.76.43a.08.08,0,0,1-.11,0,.21.21,0,0,1-.05-.15v-.93a.49.49,0,0,1,.05-.2.27.27,0,0,1,.11-.14l.76-.44a.09.09,0,0,1,.11,0,.21.21,0,0,1,.05.15Z" style="fill: rgb(144, 202, 249); transform-origin: 310.545px 98.4021px;" id="elmyved97eto8" class="animable"></path><path d="M132.19,215.32v41.9c0,1.38,1,1.94,2.17,1.25l149-86.06a4.8,4.8,0,0,0,2.16-3.75V126.77c0-1.38-1-1.94-2.16-1.25l-149,86.05A4.78,4.78,0,0,0,132.19,215.32Z" style="fill: rgb(144, 202, 249); transform-origin: 208.855px 191.995px;" id="el1dmmrsf9eaq" class="animable"></path><g id="el4616umjxeb"><path d="M132.19,215.32v41.9c0,1.38,1,1.94,2.17,1.25l149-86.06a4.8,4.8,0,0,0,2.16-3.75V126.77c0-1.38-1-1.94-2.16-1.25l-149,86.05A4.78,4.78,0,0,0,132.19,215.32Z" style="fill: rgb(255, 255, 255); opacity: 0.7; transform-origin: 208.855px 191.995px;" class="animable"></path></g><path d="M144.38,221.42c-4.49,2.6-8.13,8.9-8.13,14.08s3.64,7.28,8.13,4.69,8.13-8.89,8.12-14.08S148.86,218.83,144.38,221.42Z" style="fill: rgb(144, 202, 249); transform-origin: 144.375px 230.804px;" id="elpwiotoeiuve" class="animable"></path><path d="M143.43,229.69a1.39,1.39,0,0,1-.72-.19,1.76,1.76,0,0,1-.78-1.63,4.65,4.65,0,0,1,2.13-3.7h0a1.6,1.6,0,0,1,2.59,1.49,4.66,4.66,0,0,1-2.14,3.7A2.17,2.17,0,0,1,143.43,229.69Z" style="fill: rgb(255, 255, 255); transform-origin: 144.296px 226.751px;" id="elrkptrc784t" class="animable"></path><path d="M147.59,230.23a2.8,2.8,0,0,0-2.86.22l-1.18.68a8,8,0,0,0-3.66,6.33v.84c1.16.64,2.74.53,4.49-.48a13,13,0,0,0,4.48-4.7v-.2A3,3,0,0,0,147.59,230.23Z" style="fill: rgb(255, 255, 255); transform-origin: 144.38px 234.318px;" id="elpjjy3g40ab" class="animable"></path><path d="M158.12,219.71l17.21-9.93c.86-.5,1.56-.18,1.56.7a3.28,3.28,0,0,1-1.56,2.5l-17.21,9.93c-.86.5-1.56.19-1.56-.7A3.28,3.28,0,0,1,158.12,219.71Z" style="fill: rgb(69, 90, 100); transform-origin: 166.725px 216.346px;" id="elxbw2u54u4h9" class="animable"></path><path d="M157.48,226.37l10.12-5.84c.5-.3.91-.11.91.41a1.94,1.94,0,0,1-.91,1.47l-10.12,5.84c-.51.29-.92.11-.92-.41A1.91,1.91,0,0,1,157.48,226.37Z" style="fill: rgb(69, 90, 100); transform-origin: 162.535px 224.388px;" id="elu5zbbj1iomc" class="animable"></path><path d="M134.36,258.52l149-86a4.8,4.8,0,0,0,2.16-3.75v-6.87L132.19,250.39v6.88C132.19,258.65,133.16,259.21,134.36,258.52Z" style="fill: rgb(245, 245, 245); transform-origin: 208.855px 210.358px;" id="el2byc5g51gh5" class="animable"></path><path d="M172.81,234.29a.36.36,0,0,1-.37-.37v-4.69a.37.37,0,0,1,.37-.38.38.38,0,0,1,.38.38v4.69A.37.37,0,0,1,172.81,234.29Z" style="fill: rgb(235, 235, 235); transform-origin: 172.815px 231.57px;" id="eljhvmeyida9" class="animable"></path><path d="M154.64,240.47l13.18-7.69c.86-.49,1.56-.12,1.56.85a3.4,3.4,0,0,1-1.56,2.64L154.64,244c-.86.5-1.56.12-1.56-.84A3.4,3.4,0,0,1,154.64,240.47Z" style="fill: rgb(224, 224, 224); transform-origin: 161.23px 238.392px;" id="el4rehw2q9ibx" class="animable"></path><path d="M196.62,220.46a.37.37,0,0,1-.37-.38v-4.69a.37.37,0,0,1,.37-.37.38.38,0,0,1,.38.37v4.69A.38.38,0,0,1,196.62,220.46Z" style="fill: rgb(235, 235, 235); transform-origin: 196.625px 217.74px;" id="el462pwunt4yb" class="animable"></path><path d="M178.45,226.63,191.63,219c.86-.5,1.56-.12,1.56.84a3.38,3.38,0,0,1-1.56,2.64l-13.18,7.69c-.86.5-1.56.12-1.56-.84A3.4,3.4,0,0,1,178.45,226.63Z" style="fill: rgb(224, 224, 224); transform-origin: 185.04px 224.585px;" id="elnlh6mkb1awg" class="animable"></path><path d="M220.43,206.62a.38.38,0,0,1-.38-.37v-4.69a.38.38,0,0,1,.38-.38.37.37,0,0,1,.37.38v4.69A.37.37,0,0,1,220.43,206.62Z" style="fill: rgb(235, 235, 235); transform-origin: 220.425px 203.9px;" id="elfmkx3v6x0w5" class="animable"></path><path d="M202.26,212.8l13.18-7.69c.86-.49,1.56-.12,1.56.85a3.4,3.4,0,0,1-1.56,2.64l-13.18,7.68c-.86.5-1.56.12-1.56-.84A3.4,3.4,0,0,1,202.26,212.8Z" style="fill: rgb(224, 224, 224); transform-origin: 208.85px 210.697px;" id="elzelvdbiz5m" class="animable"></path><path d="M244.24,192.79a.38.38,0,0,1-.38-.38v-4.69a.37.37,0,0,1,.38-.37.36.36,0,0,1,.37.37v4.69A.37.37,0,0,1,244.24,192.79Z" style="fill: rgb(235, 235, 235); transform-origin: 244.235px 190.07px;" id="elwh3dl4duwur" class="animable"></path><path d="M226.07,199l13.18-7.68c.86-.5,1.56-.12,1.56.84a3.38,3.38,0,0,1-1.56,2.64l-13.18,7.69c-.87.5-1.56.12-1.56-.84A3.37,3.37,0,0,1,226.07,199Z" style="fill: rgb(224, 224, 224); transform-origin: 232.66px 196.905px;" id="elwoiaiyydut" class="animable"></path><path d="M249.87,185.13l13.19-7.69c.86-.49,1.56-.12,1.56.85a3.4,3.4,0,0,1-1.56,2.64l-13.19,7.68c-.86.5-1.55.12-1.55-.84A3.39,3.39,0,0,1,249.87,185.13Z" style="fill: rgb(224, 224, 224); transform-origin: 256.47px 183.027px;" id="elzehs5lozyx9" class="animable"></path></g></g><g id="freepik--Plants--inject-22" class="animable" style="transform-origin: 116.1px 361.23px;"><g id="freepik--plants--inject-22" class="animable" style="transform-origin: 116.1px 361.23px;"><path d="M127,398.89l13.29-7.66s8.25-24.28,6.16-46.64C143.82,316.81,130.7,307,123,310.14s-6.11,14.17,2.06,29C131.51,350.93,131.53,378.05,127,398.89Z" style="fill: rgb(144, 202, 249); transform-origin: 132.395px 354.234px;" id="elyd382ixo5x" class="animable"></path><g id="elqo6yvqd54ee"><path d="M127,398.89l13.29-7.66s8.25-24.28,6.16-46.64C143.82,316.81,130.7,307,123,310.14s-6.11,14.17,2.06,29C131.51,350.93,131.53,378.05,127,398.89Z" style="opacity: 0.1; transform-origin: 132.395px 354.234px;" class="animable"></path></g><path d="M133.35,395.84a.6.6,0,0,0,.57-.41c8.56-26.21,8.92-63-7.28-79.61a.6.6,0,1,0-.86.84c15.29,15.66,15.56,52.16,7,78.39a.6.6,0,0,0,.39.76A.58.58,0,0,0,133.35,395.84Z" style="fill: rgb(255, 255, 255); transform-origin: 132.678px 355.739px;" id="elamr7340irvh" class="animable"></path><path d="M103.08,412.68c-1.38.79-4.22-.94-5.3-1.67a13.2,13.2,0,0,1-4.37-5,12.33,12.33,0,0,1-1.1-7.4,29.93,29.93,0,0,1,.94-3.93c.37-1.27.73-2.54,1.1-3.82a9.74,9.74,0,0,0,.56-3.84c-.34-2.61-2.65-4.44-4.76-6-2.33-1.74-4.75-4.05-4.74-7.19a11,11,0,0,1,2.77-6.58c1.5-1.9,3.28-3.58,4.64-5.59a7.67,7.67,0,0,0,1.58-4.88,8.16,8.16,0,0,0-1.06-3.05c-1.11-2.05-2.58-3.92-3.34-6.12s-.66-4.93,1.06-6.5c1.41-1.29,3.5-1.47,5.41-1.35a12.39,12.39,0,0,1,5,1.77c5,2.78,7.84,8.68,13.13,10.82,2,.82,4.28,1,6.41,1.56s4.3,1.65,5.28,3.62c1.95,3.88-1.66,8.67-.3,12.79,1.21,3.64,4.76,5,6.75,8.32a7.8,7.8,0,0,1,.93,4.77,22.94,22.94,0,0,1-2,8.07,57.26,57.26,0,0,1-4.42,7.26C127.16,398.8,103.29,412.56,103.08,412.68Z" style="fill: rgb(144, 202, 249); transform-origin: 109.57px 376.305px;" id="elpv3v2sdr5ed" class="animable"></path><path d="M117.34,405a.55.55,0,0,0,.53-.48c2.57-20.36-7.15-47.83-21.67-61.22a.54.54,0,0,0-.73.79c14.29,13.19,23.86,40.24,21.33,60.3a.54.54,0,0,0,.47.6Z" style="fill: rgb(255, 255, 255); transform-origin: 106.806px 374.094px;" id="elkgdggoxiqt" class="animable"></path><path d="M114.85,378.92a.53.53,0,0,0,.43-.22.54.54,0,0,0-.1-.75c-8-6-20.26-5-20.77-4.92a.54.54,0,0,0-.49.59.55.55,0,0,0,.58.49c.13,0,12.35-1.06,20,4.7A.56.56,0,0,0,114.85,378.92Z" style="fill: rgb(255, 255, 255); transform-origin: 104.653px 375.92px;" id="eltre5oe3scja" class="animable"></path><path d="M113.65,373.92a.53.53,0,0,0,.53-.51c.37-9.33,7.41-15,7.48-15a.54.54,0,0,0,.1-.76.55.55,0,0,0-.76-.09,22.43,22.43,0,0,0-7.89,15.82.54.54,0,0,0,.51.56Z" style="fill: rgb(255, 255, 255); transform-origin: 117.491px 365.694px;" id="elhkyt9xd2ggn" class="animable"></path></g></g><g id="freepik--Post--inject-22" class="animable" style="transform-origin: 264.21px 291.38px;"><g id="freepik--post--inject-22" class="animable" style="transform-origin: 264.21px 291.38px;"><path d="M245.93,395.74a68.18,68.18,0,0,1-33.32-48.88l-7.09-47.07A68.13,68.13,0,0,0,178,254.67L168.75,248v5.28l5,3.62a68.18,68.18,0,0,1,27.5,45l7.23,47.4a68.19,68.19,0,0,0,33.3,48.76l4.13,2.38v-4.69Z" style="fill: rgb(235, 235, 235); transform-origin: 207.34px 324.22px;" id="elo4xkchqrwp" class="animable"></path><path d="M326.34,281.19l-7.09-47.07A68.14,68.14,0,0,0,291.74,189l-9.25-6.68L168.75,248l9.25,6.68a68.13,68.13,0,0,1,27.52,45.12l7.09,47.07a68.18,68.18,0,0,0,33.32,48.88h0l113.74-65.67h0A68.15,68.15,0,0,1,326.34,281.19Z" style="fill: rgb(250, 250, 250); transform-origin: 264.21px 289.035px;" id="elii9krlft0im" class="animable"></path><path d="M282.43,183.51l8.72,6.3a67.59,67.59,0,0,1,27.12,44.46l7.08,47.07a68.8,68.8,0,0,0,32.34,48.72L245.93,394.58a66.84,66.84,0,0,1-32.34-47.87l-7.08-47.07a69.61,69.61,0,0,0-27.92-45.79l-8-5.77,111.84-64.57m.06-1.19L168.75,248l9.25,6.68a68.13,68.13,0,0,1,27.52,45.12l7.09,47.07a68.18,68.18,0,0,0,33.32,48.88h0l113.74-65.67a68.15,68.15,0,0,1-33.33-48.88l-7.09-47.07A68.14,68.14,0,0,0,291.74,189l-9.25-6.68Z" style="fill: rgb(224, 224, 224); transform-origin: 264.21px 289.035px;" id="elzqxkb9cciab" class="animable"></path><polygon points="245.93 395.74 359.67 330.07 359.67 334.76 245.93 400.43 245.93 395.74" style="fill: rgb(245, 245, 245); transform-origin: 302.8px 365.25px;" id="eleq8nvu143fp" class="animable"></polygon><path d="M190,244.46c-4,1.69-4.39,5.15-.95,7.75a14.94,14.94,0,0,0,13.42,1.63c4-1.68,4.4-5.15,1-7.74A14.91,14.91,0,0,0,190,244.46Z" style="fill: rgb(144, 202, 249); transform-origin: 196.241px 249.144px;" id="el0647nrbl27bg" class="animable"></path><path d="M194.3,248.67a4.57,4.57,0,0,1-1,0,4.31,4.31,0,0,1-2.07-.74c-.92-.69-.82-1.59.25-2h0a4.39,4.39,0,0,1,2.2-.23,4.46,4.46,0,0,1,2.07.75c.92.69.81,1.59-.25,2A3.6,3.6,0,0,1,194.3,248.67Z" style="fill: rgb(255, 255, 255); transform-origin: 193.488px 247.174px;" id="elip5n5okgij" class="animable"></path><path d="M199.93,248.58a7,7,0,0,0-3.48.36l-1,.44c-1.81.78-2,2.31-.42,3.49l.56.42a12.69,12.69,0,0,0,5.65-.45c1.72-.66,2.77-1.42,2.92-2.51l-.77-.51A7.32,7.32,0,0,0,199.93,248.58Z" style="fill: rgb(255, 255, 255); transform-origin: 199.059px 250.963px;" id="eltpnbegz7o2e" class="animable"></path><path d="M208.47,237.08l33.4-19.29a4.09,4.09,0,0,1,4.19.22l.3.24a1.62,1.62,0,0,1-.23,2.85l-33.37,19.33a3.89,3.89,0,0,1-4.08-.36c-.12-.09-.24-.18-.35-.28A1.5,1.5,0,0,1,208.47,237.08Z" style="fill: rgb(69, 90, 100); transform-origin: 227.322px 229.081px;" id="elanh8d37ju3h" class="animable"></path><path d="M215.81,244.86l16.72-9.65a.89.89,0,0,0,.17-1.49l-.3-.29a1.74,1.74,0,0,0-2-.23l-16.63,9.72a.9.9,0,0,0-.17,1.5l.21.2A1.76,1.76,0,0,0,215.81,244.86Z" style="fill: rgb(69, 90, 100); transform-origin: 223.15px 239.026px;" id="el0z3l12a1qcis" class="animable"></path><g id="el41rs54k44k1"><path d="M204.88,263.19,295,211.14a2.78,2.78,0,0,1,3.61.79l.19.27a2.33,2.33,0,0,1-.8,3.34l-90.17,52.09a2.67,2.67,0,0,1-3.52-.85l-.19-.29A2.27,2.27,0,0,1,204.88,263.19Z" style="opacity: 0.2; transform-origin: 251.451px 239.376px;" class="animable"></path></g><g id="elk5detbfrchp"><path d="M210.35,272.07,300.57,220a2.32,2.32,0,0,1,3.29,1l.14.29a2.82,2.82,0,0,1-1.14,3.53l-90.24,52.14a2.21,2.21,0,0,1-3.17-1l-.16-.32A2.73,2.73,0,0,1,210.35,272.07Z" style="opacity: 0.2; transform-origin: 256.616px 248.476px;" class="animable"></path></g><g id="ellyj4jybcwdh"><path d="M214.41,281.72l90.3-52.13a1.93,1.93,0,0,1,2.93,1.13l.12.45a3.37,3.37,0,0,1-1.5,3.66L216,287a1.83,1.83,0,0,1-2.81-1.17c0-.16-.09-.32-.14-.48A3.29,3.29,0,0,1,214.41,281.72Z" style="opacity: 0.2; transform-origin: 260.392px 258.289px;" class="animable"></path></g><g id="eld4pvq1sw4j4"><path d="M217,292.24l52.49-30.31a1.59,1.59,0,0,1,2.54,1.23l.11.7a3.93,3.93,0,0,1-1.79,3.72l-52.49,30.34a1.59,1.59,0,0,1-2.54-1.22c0-.25-.07-.49-.11-.74A4,4,0,0,1,217,292.24Z" style="opacity: 0.2; transform-origin: 243.677px 279.925px;" class="animable"></path></g><path d="M325.54,320.76l-85.89,49.6a5.53,5.53,0,0,1-7.25-1.56q-8.15-12.48-10.88-31.09l-3.43-22.79a7.91,7.91,0,0,1,3.58-7.45l86-49.68c2.39-1.38,4.67-.28,5.08,2.45l3.43,22.8A71.72,71.72,0,0,0,327,314.17,4.55,4.55,0,0,1,325.54,320.76Z" style="fill: rgb(144, 202, 249); transform-origin: 272.945px 314.147px;" id="ele4ndqm3tu3c" class="animable"></path><g id="elhr5pj5h2yq"><path d="M325.54,320.76l-85.89,49.6a5.53,5.53,0,0,1-7.25-1.56q-8.15-12.48-10.88-31.09l-3.43-22.79a7.91,7.91,0,0,1,3.58-7.45l86-49.68c2.39-1.38,4.67-.28,5.08,2.45l3.43,22.8A71.72,71.72,0,0,0,327,314.17,4.55,4.55,0,0,1,325.54,320.76Z" style="fill: rgb(255, 255, 255); opacity: 0.7; transform-origin: 272.945px 314.147px;" class="animable"></path></g><path d="M239.65,370.36l85.89-49.6a4.55,4.55,0,0,0,1.46-6.59,66.29,66.29,0,0,1-6.82-13.91l-26.65-7.52L281.7,319l12.85,10.33-44.84-23.6-22.93,52.13a62.94,62.94,0,0,0,5.62,10.95A5.53,5.53,0,0,0,239.65,370.36Z" style="fill: rgb(144, 202, 249); transform-origin: 277.31px 331.921px;" id="elj83rzf5z49" class="animable"></path><path d="M275.67,287.17c3.16-1.82,6.17-.31,6.73,3.38a10.56,10.56,0,0,1-4.72,10c-3.16,1.83-6.17.31-6.72-3.38A10.55,10.55,0,0,1,275.67,287.17Z" style="fill: rgb(144, 202, 249); transform-origin: 276.679px 293.862px;" id="ell799clgt27m" class="animable"></path><path d="M301.75,350.15a5,5,0,0,1-.86,0,3.7,3.7,0,0,1-1.74-.63c-.76-.57-.67-1.32.21-1.7h0a3.66,3.66,0,0,1,1.83-.19,3.81,3.81,0,0,1,1.74.62c.76.58.67,1.33-.21,1.71A2.88,2.88,0,0,1,301.75,350.15Z" style="fill: rgb(144, 202, 249); transform-origin: 301.04px 348.879px;" id="el781w5tdd5hg" class="animable"></path><path d="M306.46,350.08a5.77,5.77,0,0,0-2.91.3l-.87.36c-1.51.65-1.67,1.93-.35,2.92l.46.35a10.7,10.7,0,0,0,4.73-.38c1.43-.55,2.31-1.19,2.44-2.1l-.65-.42A6,6,0,0,0,306.46,350.08Z" style="fill: rgb(144, 202, 249); transform-origin: 305.698px 352.066px;" id="elqlt7h957nd" class="animable"></path><path d="M308.11,346.31l-3.22.16-.87.75a.31.31,0,0,0,0,.48l.87.69,3.27-.13Zm-3.44,1.36a.23.23,0,0,1-.23-.24.23.23,0,0,1,.23-.23.23.23,0,0,1,.24.23A.24.24,0,0,1,304.67,347.67Z" style="fill: rgb(144, 202, 249); transform-origin: 306.033px 347.35px;" id="el6wngt74bmlu" class="animable"></path><path d="M324.78,340.61c0,.49-.63.9-1,1.1a6.08,6.08,0,0,1-2.26.73C320.76,341.55,322.22,340,324.78,340.61Z" style="fill: rgb(144, 202, 249); transform-origin: 323.049px 341.456px;" id="elat6f0un9yrt" class="animable"></path><path d="M324.9,337.46c-2.36-1.95-6.06-2.67-8.66-1.18s-3.11,4.64-.72,6.59,6.66,2,9.24.49S327.27,339.4,324.9,337.46ZM321,337a1.19,1.19,0,0,1,1.34.21.6.6,0,0,1-.12,1,1.22,1.22,0,0,1-1.39-.15A.65.65,0,0,1,321,337Zm-4.74,3.64a.65.65,0,0,1,.17-1.07,1.17,1.17,0,0,1,1.33.21.6.6,0,0,1-.11,1A1.22,1.22,0,0,1,316.21,340.68Zm7.84,1.46a7.4,7.4,0,0,1-3.6.87,7.28,7.28,0,0,1-3.16-.67l6.72-3.79a2.79,2.79,0,0,1,1.26,2.1A2.15,2.15,0,0,1,324.05,342.14Z" style="fill: rgb(144, 202, 249); transform-origin: 320.333px 339.952px;" id="elepbvr4fcliv" class="animable"></path><path d="M339,328.67a4,4,0,0,0-.89-1,5.64,5.64,0,0,0-6.06-.83,2.7,2.7,0,0,0-.5,4.61,4.56,4.56,0,0,0,.67.44l0,0c3,1.71,8.45,1.92,8.45,1.92A9.58,9.58,0,0,0,339,328.67Zm-2.61,1.89a3,3,0,0,1-3.09-.16,1.3,1.3,0,0,1,.24-2.21,2.7,2.7,0,0,1,2.9.4C337.24,329.24,337.27,330.06,336.4,330.56Z" style="fill: rgb(144, 202, 249); transform-origin: 335.573px 330.06px;" id="elgmwbhn1s9md" class="animable"></path></g></g><g id="freepik--Character--inject-22" class="animable" style="transform-origin: 396.84px 274.253px;"><g id="freepik--character--inject-22" class="animable" style="transform-origin: 396.84px 274.253px;"><path d="M447.65,339.23l-12.86,37.53a1.21,1.21,0,0,1-2.29,0l-12.69-37.83Z" style="fill: rgb(255, 168, 167); transform-origin: 433.73px 358.254px;" id="el5kt9dmohilm" class="animable"></path><path d="M432.5,376.75a1.21,1.21,0,0,0,2.29,0l2.51-7.33h0a6.69,6.69,0,0,1-6.95-.39l-.56-.38Z" style="fill: rgb(38, 50, 56); transform-origin: 433.545px 373.109px;" id="eledgo8fhoyag" class="animable"></path><path d="M420.29,171.58v3.67l0,4.43-.46,159.24a17.8,17.8,0,0,0,11.73,5.52c6.73.7,13.64-1.51,16.1-5.21l.45-159.15,0-8.47C447.78,177.09,420.05,177.08,420.29,171.58Z" style="fill: rgb(144, 202, 249); transform-origin: 433.97px 258.074px;" id="elw4vfrhhqv5r" class="animable"></path><path d="M420.21,185.55v8.2c-.08,2.38,5,3.92,10.83,4.45,7.76.74,16.9-1.36,17-4.51l0-6.05,0-2.16c-.12,3.15-9.26,5.26-17,4.52-5.6-.52-10.5-2-10.78-4.19v0A.48.48,0,0,1,420.21,185.55Z" style="fill: rgb(235, 235, 235); transform-origin: 434.124px 191.914px;" id="elm4dvivcrgl" class="animable"></path><path d="M420.23,187.6c-.2,5.52,27.62,5.45,27.82-.07l0-8.21c-.2,5.52-28,5.59-27.82.07Z" style="fill: rgb(144, 202, 249); transform-origin: 434.139px 185.513px;" id="el4c1drl4t3x5" class="animable"></path><path d="M420.29,171.58l0,8.1c-.24,5.42,26.61,5.58,27.82.4a1.44,1.44,0,0,0,.05-.31l0-8.16C447.78,177.09,420.05,177.08,420.29,171.58Z" style="fill: rgb(235, 235, 235); transform-origin: 434.224px 177.719px;" id="el19onhj7db7q" class="animable"></path><path d="M448.23,136.86v-.35c0-3.95-6.22-7.16-13.9-7.16s-13.91,3.21-13.91,7.16v3.73l-.13,31.34c-.1,2.35,4.9,3.9,10.7,4.46,7.76.76,16.94-1.29,17.11-4.43,0,0,0,0,0,0l.12-34.5C448.24,137,448.23,136.88,448.23,136.86Z" style="fill: rgb(242, 143, 143); transform-origin: 434.261px 152.774px;" id="el7r5s2z3z5wl" class="animable"></path><g id="el7xg2um1x4el"><ellipse cx="434.33" cy="136.51" rx="13.91" ry="7.16" style="fill: rgb(255, 255, 255); opacity: 0.2; transform-origin: 434.33px 136.51px;" class="animable"></ellipse></g><g id="elwb68troum8r"><path d="M448.08,180.08l.15-43.22c-.18,3.38-6,6.58-12.25,6.81l-.45,200.9-.74,32.19,12.86-37.53h0Z" style="opacity: 0.1; transform-origin: 441.51px 256.81px;" class="animable"></path></g><path d="M403.09,213.56c5.29-.77,11.81,3.21,16.35,9.59s20.36,21.91,22.1,26.85c1.26,3.6.52,10.37-6.93,7.19-7.21-3.07-30.2-25.62-30.2-25.62Z" style="fill: rgb(177, 102, 104); transform-origin: 422.563px 235.741px;" id="elodb6oexnx2b" class="animable"></path><path d="M400.56,213.56a26.22,26.22,0,0,1,5.18-.58c1.83.12,5.94,1.21,10.17,5.33s15.21,17.43,15.21,17.43.49,3.74-3.19,7.91-7.12,4.17-7.12,4.17L404.5,234.31Z" style="fill: rgb(55, 71, 79); transform-origin: 415.851px 230.4px;" id="el9pxpq0ozhpw" class="animable"></path><path d="M436.4,242.67,448,225.83l0-12.37s2.56.86,3.58,4.85,2.29,8.63,1.78,12-8.54,23.95-12.87,26.85S436.4,242.67,436.4,242.67Z" style="fill: rgb(177, 102, 104); transform-origin: 444.937px 235.473px;" id="el3184985fahw" class="animable"></path><polygon points="384.19 207.97 386.45 222.21 400.56 221.45 398.54 204.91 384.19 207.97" style="fill: rgb(177, 102, 104); transform-origin: 392.375px 213.56px;" id="el31vf9avogee" class="animable"></polygon><path d="M374.7,190.51s-3.36,5.1-3,5.6,2.86,1,2.86,1Z" style="fill: rgb(154, 74, 77); transform-origin: 373.187px 193.81px;" id="elyfm6ruu2gh" class="animable"></path><path d="M384,176.39c-6.8,1.44-8.77,4.43-9.41,15.24-.67,11.3.48,14.85,2,16.37,1,1,6.57,1.21,9.38.44,3.51-1,11.46-3.79,15.18-9.47,4.37-6.68,5.52-15.75.84-19.46C395.4,174.27,386.81,175.81,384,176.39Z" style="fill: rgb(177, 102, 104); transform-origin: 389.7px 192.315px;" id="el52ymleqr7xa" class="animable"></path><path d="M384.32,208.75a27.66,27.66,0,0,0,3.58-.9,6.27,6.27,0,0,1-3.41,2Z" style="fill: rgb(154, 74, 77); transform-origin: 386.11px 208.85px;" id="elxbyc1z4drk" class="animable"></path><path d="M374.2,179.82a13,13,0,0,0,3,1.21c1.66.48,1.41,1.1,1.64,2.62a6.18,6.18,0,0,0,1.87,3.59c.65.59,1.13.64,1.35,1.54a12.75,12.75,0,0,1,0,2.83c0,1.88,1.22,3.3,1.8.79,0,0,1.08-4.18,4.6-3.65s3.83,4.49,2.15,7.6c-1,1.9-3.76,1.4-3.76,1.4a12.27,12.27,0,0,0,3.68,9.47s3.5,2.6,9-.1a71.06,71.06,0,0,0,6.26-9.51c2.44-4.24,4.55-9.46,3.72-14.45a9.33,9.33,0,0,0-2.37-5,3.4,3.4,0,0,1-1.14-2.5,4.85,4.85,0,0,0-1.7-2.87,4.94,4.94,0,0,0-5-.67,4.14,4.14,0,0,0-3.16-3.7,7.6,7.6,0,0,0-5.07.7,5.6,5.6,0,0,0-9.4-.59,3,3,0,0,0-2.36-1.36,7.31,7.31,0,0,0-2.77.44,10.32,10.32,0,0,0-2.16.92A6.9,6.9,0,0,0,371.3,176,6,6,0,0,0,374.2,179.82Z" style="fill: rgb(38, 50, 56); transform-origin: 390.403px 187.298px;" id="el5z7kk1p4wcf" class="animable"></path><path d="M406.07,178.69l4.07-2.4a2.36,2.36,0,1,0-4.07,2.4Z" style="fill: rgb(38, 50, 56); transform-origin: 407.94px 176.907px;" id="eln8tka644p7o" class="animable"></path><path d="M409.87,390.08l.09.91a16.35,16.35,0,0,1,.09,3.63,3.22,3.22,0,0,1-1.12,2.43,10.08,10.08,0,0,1-2.65,1,9.31,9.31,0,0,1-6.17-.61c-1.6-.77-2.85-2-4.58-2.47a34.69,34.69,0,0,0-5.44-.9,12.32,12.32,0,0,1-2.41-.44,11.18,11.18,0,0,1-1.73-.78,16.9,16.9,0,0,1-5.13-3.75,8,8,0,0,1-1.84-3.66c-.16-.81-.48-3.12.85-3.06,6.55.29,13,1.7,19.58,1.62a9.08,9.08,0,0,1,1.28,0,5.56,5.56,0,0,1,2.2,1,2.26,2.26,0,0,0,2,.49,10.15,10.15,0,0,1,3.39.05,1.6,1.6,0,0,1,1.17.8,1.34,1.34,0,0,1,.1.49C409.66,388,409.77,389,409.87,390.08Z" style="fill: rgb(38, 50, 56); transform-origin: 394.469px 390.349px;" id="els5p8t8hbn9" class="animable"></path><path d="M409.2,382.24l-.34,4.93c-.32,1.88-6.72,3-8-.29l-.63-5.6Z" style="fill: rgb(177, 102, 104); transform-origin: 404.715px 385.128px;" id="elmfkouer94ba" class="animable"></path><path d="M384.83,401.76s.78,2.56,1.19,4.8c.32,1.78.77,4.76.12,6.08s-3.09,2.12-6.85,2c-2.43-.08-6.25,1.49-8.88,2.88s-8.29,1.9-11.12,1.51c-3.33-.47-6.74-2.49-7.25-3.88s.24-2.82,8.18-6c.07,0,11-3.32,14.92-7.43Z" style="fill: rgb(38, 50, 56); transform-origin: 369.194px 410.438px;" id="el76wyjjh38sh" class="animable"></path><path d="M384.9,398.59s-.06,2.17-.07,3.42-1.53,3.06-5.33,2.84c-2.67-.16-4.51-.92-4.36-3.11l.07-3.17Z" style="fill: rgb(177, 102, 104); transform-origin: 380.016px 401.719px;" id="elpxwr4zvuxsl" class="animable"></path><path d="M411.78,344.33c-1.13-9.6-2-15.11-2-15.11s.2-13.38,1-25.85c.85-13.48.66-30.45,1-33.81,0,0-43.29-9.24-43.65,6.37-.4,18.14.8,55.67,1.06,60.56.36,6.86.38,14,1.54,25.13,1.15,11,4.48,36.95,4.48,36.95a10.28,10.28,0,0,0,9.69,0s3.77-31.11,3.62-39a107.73,107.73,0,0,0-1.64-17.1l3.41-35.22s1.34,10.89,1.7,17.75,1.3,11.05,3,23.82c1.47,11.07,5.2,34.45,5.2,34.45a8.77,8.77,0,0,0,9.21-.37S412.91,353.94,411.78,344.33Z" style="fill: rgb(144, 202, 249); transform-origin: 390.027px 333.314px;" id="elhxdzz29y258" class="animable"></path><g id="elqrekxixk5o"><path d="M411.78,344.33c-1.13-9.6-2-15.11-2-15.11s.2-13.38,1-25.85c.85-13.48.66-30.45,1-33.81,0,0-43.29-9.24-43.65,6.37-.4,18.14.8,55.67,1.06,60.56.36,6.86.38,14,1.54,25.13,1.15,11,4.48,36.95,4.48,36.95a10.28,10.28,0,0,0,9.69,0s3.77-31.11,3.62-39a107.73,107.73,0,0,0-1.64-17.1l3.41-35.22s1.34,10.89,1.7,17.75,1.3,11.05,3,23.82c1.47,11.07,5.2,34.45,5.2,34.45a8.77,8.77,0,0,0,9.21-.37S412.91,353.94,411.78,344.33Z" style="opacity: 0.3; transform-origin: 390.027px 333.314px;" class="animable"></path></g><g id="el6nb5e45pml"><path d="M406.76,290.88s-3,4.95-12.1,8.57l-2.54,8.5-.27,14.94c-.35-4.81-.88-10.07-1.56-15.64l1-8.76S401.37,295.45,406.76,290.88Z" style="opacity: 0.15; transform-origin: 398.525px 306.885px;" class="animable"></path></g><path d="M413.45,222.77c-1.74-6.19-5.83-8.92-10.36-9.21-1.15-.07-3.49,0-3.49,0,.32,2.63-7.76,4.48-14,3-1.9.49-5,1.2-6.61,1.73-4.51,1.5-9.93,7.14-10.63,21.87,0,0-.72,31.65-.5,40.85,11.15,4.7,21.92,5.29,28.41,4,13.53-2.63,15.75-8.43,15.75-8.43s-.12-8-.63-20.87C413.65,237.51,414.2,225.45,413.45,222.77Z" style="fill: rgb(69, 90, 100); transform-origin: 390.792px 249.566px;" id="el4s1v8bu8ies" class="animable"></path><path d="M360.7,275.23a8.39,8.39,0,0,1,3.95,7c.19,2.88.19,6,1.54,8.61.22.43,1.4,1.4,1.86,1.26v-3.68c.75-.95,2.8-2.72,3.33-3.81.88-1.82-.15-4,.38-6a8.91,8.91,0,0,0,.68-2.42,6.77,6.77,0,0,0-2.25-5.54c-2-1.61-3.76-3.61-5.55-5.41-2.32-2.33-5.54-5.76-7.86-8.1l15.57-14.93a22.47,22.47,0,0,0,4.44-5.91c2.55-4.9,6-13.49,2.15-18-5.55,0-8.7.85-14.37,7.46-4.89,5.7-20.5,24.4-22.51,27.57s-3.16,5.34.69,8.86a115.59,115.59,0,0,0,9.82,7.51C355.2,271.59,358.07,273.36,360.7,275.23Z" style="fill: rgb(177, 102, 104); transform-origin: 360.433px 255.207px;" id="elacfi8xniwqt" class="animable"></path><path d="M356.79,257.19a17.53,17.53,0,0,1-4.77,3.28,14.32,14.32,0,0,0,5.85-2.18Z" style="fill: rgb(154, 74, 77); transform-origin: 354.945px 258.83px;" id="ellpu1ma2hgs8" class="animable"></path><path d="M380.69,217.8a27.51,27.51,0,0,0-6.72.51c-3.37.73-5.64,2.44-11.48,9.05s-9.94,12-9.94,12-1.68,3.72,3,7.94,8.9,3.49,8.9,3.49l13.12-12.76S386.93,228.24,380.69,217.8Z" style="fill: rgb(55, 71, 79); transform-origin: 367.546px 234.304px;" id="elw3pm6h6sgcm" class="animable"></path></g></g><defs>     <filter id="active" height="200%">         <feMorphology in="SourceAlpha" result="DILATED" operator="dilate" radius="2"></feMorphology>                <feFlood flood-color="#32DFEC" flood-opacity="1" result="PINK"></feFlood>        <feComposite in="PINK" in2="DILATED" operator="in" result="OUTLINE"></feComposite>        <feMerge>            <feMergeNode in="OUTLINE"></feMergeNode>            <feMergeNode in="SourceGraphic"></feMergeNode>        </feMerge>    </filter>    <filter id="hover" height="200%">        <feMorphology in="SourceAlpha" result="DILATED" operator="dilate" radius="2"></feMorphology>                <feFlood flood-color="#ff0000" flood-opacity="0.5" result="PINK"></feFlood>        <feComposite in="PINK" in2="DILATED" operator="in" result="OUTLINE"></feComposite>        <feMerge>            <feMergeNode in="OUTLINE"></feMergeNode>            <feMergeNode in="SourceGraphic"></feMergeNode>        </feMerge>            <feColorMatrix type="matrix" values="0   0   0   0   0                0   1   0   0   0                0   0   0   0   0                0   0   0   1   0 "></feColorMatrix>    </filter></defs></svg>